<?xml version="1.0" encoding="UTF-8"?>
<svg xmlns="http://www.w3.org/2000/svg" xmlns:xlink="http://www.w3.org/1999/xlink" width="24px" height="24px" viewBox="0 0 24 24" version="1.1">
<g id="surface1">
<path style=" stroke:none;fill-rule:evenodd;fill:rgb(58.431373%,57.254902%,60.784314%);fill-opacity:1;" d="M 7.769531 1.34375 C 7.367188 1.917969 7.484375 2.113281 9.316406 3.96875 L 11.035156 5.710938 L 7.03125 5.746094 C 3.082031 5.78125 3.019531 5.785156 2.445312 6.042969 C 2.121094 6.1875 1.695312 6.5 1.488281 6.742188 C 0.761719 7.589844 0.769531 7.503906 0.773438 14.46875 L 0.773438 20.753906 L 1.035156 21.304688 C 1.175781 21.605469 1.488281 22.035156 1.722656 22.261719 C 2.535156 23.039062 2.101562 23.007812 12.042969 23.007812 L 20.972656 23.007812 L 21.523438 22.75 C 22.21875 22.421875 22.640625 22 22.96875 21.304688 L 23.226562 20.753906 L 23.226562 14.46875 C 23.230469 7.503906 23.238281 7.589844 22.511719 6.742188 C 22.304688 6.5 21.878906 6.191406 21.554688 6.042969 C 20.980469 5.785156 20.914062 5.78125 16.96875 5.746094 L 12.960938 5.707031 L 14.683594 3.972656 C 16.25 2.394531 16.402344 2.207031 16.402344 1.851562 C 16.402344 1.371094 16.125 1.101562 15.632812 1.101562 C 15.304688 1.101562 15.082031 1.28125 13.632812 2.71875 L 12.003906 4.335938 L 10.363281 2.71875 C 8.871094 1.246094 8.6875 1.101562 8.332031 1.101562 C 8.050781 1.101562 7.890625 1.171875 7.769531 1.34375 M 2.894531 7.589844 C 2.664062 7.734375 2.503906 7.949219 2.421875 8.222656 C 2.335938 8.515625 2.308594 10.492188 2.332031 14.667969 L 2.367188 20.691406 L 2.726562 21.054688 L 3.085938 21.414062 L 11.808594 21.441406 C 17.957031 21.464844 20.617188 21.4375 20.824219 21.351562 C 20.984375 21.285156 21.230469 21.105469 21.375 20.953125 L 21.632812 20.679688 L 21.667969 14.660156 C 21.691406 10.476562 21.664062 8.515625 21.578125 8.222656 C 21.496094 7.949219 21.335938 7.734375 21.105469 7.589844 C 20.761719 7.382812 20.480469 7.375 12 7.375 C 3.519531 7.375 3.238281 7.382812 2.894531 7.589844 M 4.183594 11.59375 C 4.183594 11.859375 4.285156 11.90625 5.953125 12.460938 L 7.71875 13.042969 L 5.980469 13.621094 C 5.023438 13.9375 4.226562 14.199219 4.210938 14.199219 C 4.195312 14.199219 4.183594 14.332031 4.183594 14.488281 C 4.183594 14.671875 4.234375 14.757812 4.320312 14.726562 C 4.398438 14.695312 5.339844 14.363281 6.414062 13.980469 C 8.148438 13.363281 8.367188 13.261719 8.367188 13.042969 C 8.367188 12.824219 8.152344 12.722656 6.414062 12.109375 C 5.339844 11.726562 4.398438 11.394531 4.320312 11.367188 C 4.234375 11.335938 4.183594 11.417969 4.183594 11.59375 M 17.835938 12.054688 C 15.980469 12.71875 15.910156 12.757812 15.910156 13.046875 C 15.910156 13.335938 15.976562 13.367188 17.886719 14.039062 C 18.976562 14.421875 19.890625 14.714844 19.917969 14.6875 C 20.027344 14.578125 20.007812 14.316406 19.886719 14.21875 C 19.820312 14.164062 19.023438 13.878906 18.125 13.585938 L 16.484375 13.054688 L 18.167969 12.492188 C 19.789062 11.953125 19.988281 11.839844 20.027344 11.421875 C 20.042969 11.28125 19.820312 11.34375 17.835938 12.054688 M 10.132812 13.84375 C 11.75 16.878906 12.164062 17.605469 12.230469 17.53125 C 12.324219 17.425781 14.753906 12.894531 14.753906 12.824219 C 14.753906 12.792969 13.582031 12.769531 12.15625 12.769531 L 9.558594 12.769531 L 10.132812 13.84375 M 10.65625 13.789062 C 10.832031 14.105469 11.238281 14.855469 11.558594 15.449219 C 11.875 16.046875 12.175781 16.492188 12.226562 16.441406 C 12.328125 16.339844 13.980469 13.34375 13.980469 13.261719 C 13.980469 13.234375 13.160156 13.210938 12.15625 13.210938 L 10.332031 13.210938 L 10.65625 13.789062 M 4.183594 15.304688 C 4.183594 15.515625 4.257812 15.523438 6.273438 15.523438 C 8.292969 15.523438 8.367188 15.515625 8.367188 15.304688 C 8.367188 15.089844 8.292969 15.082031 6.273438 15.082031 C 4.257812 15.082031 4.183594 15.089844 4.183594 15.304688 M 15.851562 15.304688 C 15.851562 15.523438 15.910156 15.527344 17.914062 15.496094 C 19.777344 15.472656 19.984375 15.449219 20.015625 15.273438 C 20.050781 15.097656 19.894531 15.082031 17.953125 15.082031 C 15.917969 15.082031 15.851562 15.089844 15.851562 15.304688 M 4.183594 16.625 C 4.183594 16.835938 4.257812 16.84375 6.273438 16.84375 C 8.292969 16.84375 8.367188 16.835938 8.367188 16.625 C 8.367188 16.410156 8.292969 16.402344 6.273438 16.402344 C 4.257812 16.402344 4.183594 16.410156 4.183594 16.625 M 15.851562 16.625 C 15.851562 16.835938 15.925781 16.84375 17.9375 16.84375 C 19.957031 16.84375 20.023438 16.835938 20.007812 16.625 C 19.992188 16.410156 19.910156 16.402344 17.921875 16.402344 C 15.925781 16.402344 15.851562 16.410156 15.851562 16.625 "/>
<path style=" stroke:none;fill-rule:evenodd;fill:rgb(98.039216%,98.039216%,98.039216%);fill-opacity:1;" d="M 0 12 L 0 24 L 24.054688 23.945312 L 24.109375 0 L 0 0 L 0 12 M 0.0546875 12.054688 C 0.0546875 18.65625 0.0664062 21.371094 0.0820312 18.089844 C 0.0976562 14.8125 0.0976562 9.410156 0.0820312 6.089844 C 0.0664062 2.769531 0.0546875 5.453125 0.0546875 12.054688 M 7.769531 1.34375 C 7.367188 1.917969 7.484375 2.113281 9.316406 3.96875 L 11.035156 5.710938 L 7.03125 5.746094 C 3.082031 5.78125 3.019531 5.785156 2.445312 6.042969 C 2.121094 6.1875 1.695312 6.5 1.488281 6.742188 C 0.761719 7.589844 0.769531 7.503906 0.773438 14.46875 L 0.773438 20.753906 L 1.035156 21.304688 C 1.175781 21.605469 1.488281 22.035156 1.722656 22.261719 C 2.535156 23.039062 2.101562 23.007812 12.042969 23.007812 L 20.972656 23.007812 L 21.523438 22.75 C 22.21875 22.421875 22.640625 22 22.96875 21.304688 L 23.226562 20.753906 L 23.226562 14.46875 C 23.230469 7.503906 23.238281 7.589844 22.511719 6.742188 C 22.304688 6.5 21.878906 6.191406 21.554688 6.042969 C 20.980469 5.785156 20.914062 5.78125 16.96875 5.746094 L 12.960938 5.707031 L 14.683594 3.972656 C 16.25 2.394531 16.402344 2.207031 16.402344 1.851562 C 16.402344 1.371094 16.125 1.101562 15.632812 1.101562 C 15.304688 1.101562 15.082031 1.28125 13.632812 2.71875 L 12.003906 4.335938 L 10.363281 2.71875 C 8.871094 1.246094 8.6875 1.101562 8.332031 1.101562 C 8.050781 1.101562 7.890625 1.171875 7.769531 1.34375 M 2.894531 7.589844 C 2.664062 7.734375 2.503906 7.949219 2.421875 8.222656 C 2.335938 8.515625 2.308594 10.492188 2.332031 14.667969 L 2.367188 20.691406 L 2.726562 21.054688 L 3.085938 21.414062 L 11.808594 21.441406 C 17.957031 21.464844 20.617188 21.4375 20.824219 21.351562 C 20.984375 21.285156 21.230469 21.105469 21.375 20.953125 L 21.632812 20.679688 L 21.667969 14.660156 C 21.691406 10.476562 21.664062 8.515625 21.578125 8.222656 C 21.496094 7.949219 21.335938 7.734375 21.105469 7.589844 C 20.761719 7.382812 20.480469 7.375 12 7.375 C 3.519531 7.375 3.238281 7.382812 2.894531 7.589844 M 4.183594 11.59375 C 4.183594 11.859375 4.285156 11.90625 5.953125 12.460938 L 7.71875 13.042969 L 5.980469 13.621094 C 5.023438 13.9375 4.226562 14.199219 4.210938 14.199219 C 4.195312 14.199219 4.183594 14.332031 4.183594 14.488281 C 4.183594 14.671875 4.234375 14.757812 4.320312 14.726562 C 4.398438 14.695312 5.339844 14.363281 6.414062 13.980469 C 8.148438 13.363281 8.367188 13.261719 8.367188 13.042969 C 8.367188 12.824219 8.152344 12.722656 6.414062 12.109375 C 5.339844 11.726562 4.398438 11.394531 4.320312 11.367188 C 4.234375 11.335938 4.183594 11.417969 4.183594 11.59375 M 17.835938 12.054688 C 15.980469 12.71875 15.910156 12.757812 15.910156 13.046875 C 15.910156 13.335938 15.976562 13.367188 17.886719 14.039062 C 18.976562 14.421875 19.890625 14.714844 19.917969 14.6875 C 20.027344 14.578125 20.007812 14.316406 19.886719 14.21875 C 19.820312 14.164062 19.023438 13.878906 18.125 13.585938 L 16.484375 13.054688 L 18.167969 12.492188 C 19.789062 11.953125 19.988281 11.839844 20.027344 11.421875 C 20.042969 11.28125 19.820312 11.34375 17.835938 12.054688 M 10.132812 13.84375 C 11.75 16.878906 12.164062 17.605469 12.230469 17.53125 C 12.324219 17.425781 14.753906 12.894531 14.753906 12.824219 C 14.753906 12.792969 13.582031 12.769531 12.15625 12.769531 L 9.558594 12.769531 L 10.132812 13.84375 M 10.65625 13.789062 C 10.832031 14.105469 11.238281 14.855469 11.558594 15.449219 C 11.875 16.046875 12.175781 16.492188 12.226562 16.441406 C 12.328125 16.339844 13.980469 13.34375 13.980469 13.261719 C 13.980469 13.234375 13.160156 13.210938 12.15625 13.210938 L 10.332031 13.210938 L 10.65625 13.789062 M 4.183594 15.304688 C 4.183594 15.515625 4.257812 15.523438 6.273438 15.523438 C 8.292969 15.523438 8.367188 15.515625 8.367188 15.304688 C 8.367188 15.089844 8.292969 15.082031 6.273438 15.082031 C 4.257812 15.082031 4.183594 15.089844 4.183594 15.304688 M 15.851562 15.304688 C 15.851562 15.523438 15.910156 15.527344 17.914062 15.496094 C 19.777344 15.472656 19.984375 15.449219 20.015625 15.273438 C 20.050781 15.097656 19.894531 15.082031 17.953125 15.082031 C 15.917969 15.082031 15.851562 15.089844 15.851562 15.304688 M 4.183594 16.625 C 4.183594 16.835938 4.257812 16.84375 6.273438 16.84375 C 8.292969 16.84375 8.367188 16.835938 8.367188 16.625 C 8.367188 16.410156 8.292969 16.402344 6.273438 16.402344 C 4.257812 16.402344 4.183594 16.410156 4.183594 16.625 M 15.851562 16.625 C 15.851562 16.835938 15.925781 16.84375 17.9375 16.84375 C 19.957031 16.84375 20.023438 16.835938 20.007812 16.625 C 19.992188 16.410156 19.910156 16.402344 17.921875 16.402344 C 15.925781 16.402344 15.851562 16.410156 15.851562 16.625 "/>
</g>
</svg>
