<?xml version="1.0" encoding="UTF-8"?>
<svg xmlns="http://www.w3.org/2000/svg" xmlns:xlink="http://www.w3.org/1999/xlink" width="24px" height="24px" viewBox="0 0 24 24" version="1.1">
<g id="surface1">
<path style=" stroke:none;fill-rule:evenodd;fill:rgb(25.098039%,24.705882%,27.058824%);fill-opacity:1;" d="M 7.835938 1.355469 C 7.375 1.847656 7.476562 2.011719 9.4375 3.984375 L 11.277344 5.835938 L 7.152344 5.835938 C 3.054688 5.835938 3.023438 5.839844 2.476562 6.09375 C 1.792969 6.414062 1.359375 6.84375 1.058594 7.484375 C 0.832031 7.972656 0.824219 8.105469 0.824219 14.421875 L 0.824219 20.863281 L 1.082031 21.386719 C 1.414062 22.054688 2.097656 22.640625 2.796875 22.847656 C 3.636719 23.097656 20.535156 23.089844 21.269531 22.839844 C 21.9375 22.609375 22.601562 22.027344 22.917969 21.386719 L 23.175781 20.863281 L 23.175781 14.421875 C 23.175781 8.105469 23.167969 7.972656 22.941406 7.484375 C 22.640625 6.84375 22.207031 6.414062 21.523438 6.09375 C 20.976562 5.839844 20.945312 5.835938 16.847656 5.835938 L 12.722656 5.835938 L 14.5625 3.984375 C 16.539062 1.996094 16.648438 1.8125 16.148438 1.339844 C 15.65625 0.878906 15.476562 0.984375 13.679688 2.777344 L 12 4.457031 L 10.320312 2.777344 C 8.511719 0.972656 8.304688 0.855469 7.835938 1.355469 M 3.230469 7.386719 C 3.039062 7.441406 2.753906 7.640625 2.597656 7.824219 L 2.3125 8.164062 L 2.3125 14.324219 C 2.3125 19.617188 2.335938 20.535156 2.480469 20.8125 C 2.832031 21.496094 2.441406 21.46875 12 21.46875 C 21.558594 21.46875 21.167969 21.496094 21.519531 20.8125 C 21.664062 20.535156 21.6875 19.617188 21.6875 14.324219 L 21.6875 8.164062 L 21.40625 7.828125 C 21.25 7.644531 20.941406 7.441406 20.71875 7.378906 C 20.199219 7.238281 3.726562 7.242188 3.230469 7.386719 M 4.3125 11.675781 C 4.34375 11.863281 4.648438 12 6.089844 12.472656 L 7.832031 13.046875 L 6.367188 13.523438 C 4.339844 14.179688 4.292969 14.199219 4.292969 14.433594 C 4.292969 14.550781 4.332031 14.640625 4.375 14.644531 C 4.421875 14.644531 5.3125 14.339844 6.359375 13.964844 C 8.035156 13.363281 8.257812 13.257812 8.257812 13.042969 C 8.257812 12.828125 8.035156 12.722656 6.359375 12.125 C 5.3125 11.753906 4.417969 11.449219 4.367188 11.449219 C 4.320312 11.449219 4.292969 11.550781 4.3125 11.675781 M 17.753906 12.128906 C 16.050781 12.730469 15.851562 12.824219 15.851562 13.046875 C 15.851562 13.269531 16.042969 13.363281 17.695312 13.933594 C 18.710938 14.28125 19.628906 14.609375 19.734375 14.664062 C 19.890625 14.742188 19.925781 14.710938 19.925781 14.484375 C 19.925781 14.226562 19.820312 14.175781 18.160156 13.640625 C 17.191406 13.328125 16.410156 13.058594 16.429688 13.042969 C 16.445312 13.027344 17.238281 12.757812 18.191406 12.445312 C 19.640625 11.972656 19.925781 11.84375 19.925781 11.664062 C 19.925781 11.546875 19.863281 11.453125 19.789062 11.457031 C 19.714844 11.460938 18.796875 11.761719 17.753906 12.128906 M 9.6875 12.839844 C 9.6875 12.917969 11.859375 17.015625 12.0625 17.320312 C 12.179688 17.496094 12.308594 17.3125 13.105469 15.832031 C 13.601562 14.90625 14.183594 13.835938 14.390625 13.457031 L 14.769531 12.769531 L 12.230469 12.769531 C 10.832031 12.769531 9.6875 12.800781 9.6875 12.839844 M 10.347656 13.265625 C 10.347656 13.441406 12.148438 16.613281 12.222656 16.566406 C 12.273438 16.535156 12.621094 15.929688 12.996094 15.21875 C 13.371094 14.507812 13.777344 13.765625 13.894531 13.570312 L 14.109375 13.210938 L 12.230469 13.210938 C 11.195312 13.210938 10.347656 13.234375 10.347656 13.265625 M 4.292969 15.304688 C 4.292969 15.515625 4.367188 15.523438 6.273438 15.523438 C 8.183594 15.523438 8.257812 15.515625 8.257812 15.304688 C 8.257812 15.089844 8.183594 15.082031 6.273438 15.082031 C 4.367188 15.082031 4.292969 15.089844 4.292969 15.304688 M 15.851562 15.304688 C 15.851562 15.515625 15.925781 15.523438 17.890625 15.523438 C 19.851562 15.523438 19.925781 15.515625 19.925781 15.304688 C 19.925781 15.089844 19.851562 15.082031 17.890625 15.082031 C 15.925781 15.082031 15.851562 15.089844 15.851562 15.304688 M 4.292969 16.625 C 4.292969 16.835938 4.367188 16.84375 6.273438 16.84375 C 8.183594 16.84375 8.257812 16.835938 8.257812 16.625 C 8.257812 16.410156 8.183594 16.402344 6.273438 16.402344 C 4.367188 16.402344 4.292969 16.410156 4.292969 16.625 M 15.851562 16.625 C 15.851562 16.835938 15.925781 16.84375 17.890625 16.84375 C 19.851562 16.84375 19.925781 16.835938 19.925781 16.625 C 19.925781 16.410156 19.851562 16.402344 17.890625 16.402344 C 15.925781 16.402344 15.851562 16.410156 15.851562 16.625 "/>
<path style=" stroke:none;fill-rule:evenodd;fill:rgb(98.431373%,98.431373%,98.431373%);fill-opacity:1;" d="M 0 12 L 0 24 L 24.054688 23.945312 L 24.109375 0 L 0 0 L 0 12 M 0.0546875 12.054688 C 0.0546875 18.65625 0.0664062 21.371094 0.0820312 18.089844 C 0.0976562 14.8125 0.0976562 9.410156 0.0820312 6.089844 C 0.0664062 2.769531 0.0546875 5.453125 0.0546875 12.054688 M 7.835938 1.355469 C 7.375 1.847656 7.476562 2.011719 9.4375 3.984375 L 11.277344 5.835938 L 7.152344 5.835938 C 3.054688 5.835938 3.023438 5.839844 2.476562 6.09375 C 1.792969 6.414062 1.359375 6.84375 1.058594 7.484375 C 0.832031 7.972656 0.824219 8.105469 0.824219 14.421875 L 0.824219 20.863281 L 1.082031 21.386719 C 1.414062 22.054688 2.097656 22.640625 2.796875 22.847656 C 3.636719 23.097656 20.535156 23.089844 21.269531 22.839844 C 21.9375 22.609375 22.601562 22.027344 22.917969 21.386719 L 23.175781 20.863281 L 23.175781 14.421875 C 23.175781 8.105469 23.167969 7.972656 22.941406 7.484375 C 22.640625 6.84375 22.207031 6.414062 21.523438 6.09375 C 20.976562 5.839844 20.945312 5.835938 16.847656 5.835938 L 12.722656 5.835938 L 14.5625 3.984375 C 16.539062 1.996094 16.648438 1.8125 16.148438 1.339844 C 15.65625 0.878906 15.476562 0.984375 13.679688 2.777344 L 12 4.457031 L 10.320312 2.777344 C 8.511719 0.972656 8.304688 0.855469 7.835938 1.355469 M 3.230469 7.386719 C 3.039062 7.441406 2.753906 7.640625 2.597656 7.824219 L 2.3125 8.164062 L 2.3125 14.324219 C 2.3125 19.617188 2.335938 20.535156 2.480469 20.8125 C 2.832031 21.496094 2.441406 21.46875 12 21.46875 C 21.558594 21.46875 21.167969 21.496094 21.519531 20.8125 C 21.664062 20.535156 21.6875 19.617188 21.6875 14.324219 L 21.6875 8.164062 L 21.40625 7.828125 C 21.25 7.644531 20.941406 7.441406 20.71875 7.378906 C 20.199219 7.238281 3.726562 7.242188 3.230469 7.386719 M 4.3125 11.675781 C 4.34375 11.863281 4.648438 12 6.089844 12.472656 L 7.832031 13.046875 L 6.367188 13.523438 C 4.339844 14.179688 4.292969 14.199219 4.292969 14.433594 C 4.292969 14.550781 4.332031 14.640625 4.375 14.644531 C 4.421875 14.644531 5.3125 14.339844 6.359375 13.964844 C 8.035156 13.363281 8.257812 13.257812 8.257812 13.042969 C 8.257812 12.828125 8.035156 12.722656 6.359375 12.125 C 5.3125 11.753906 4.417969 11.449219 4.367188 11.449219 C 4.320312 11.449219 4.292969 11.550781 4.3125 11.675781 M 17.753906 12.128906 C 16.050781 12.730469 15.851562 12.824219 15.851562 13.046875 C 15.851562 13.269531 16.042969 13.363281 17.695312 13.933594 C 18.710938 14.28125 19.628906 14.609375 19.734375 14.664062 C 19.890625 14.742188 19.925781 14.710938 19.925781 14.484375 C 19.925781 14.226562 19.820312 14.175781 18.160156 13.640625 C 17.191406 13.328125 16.410156 13.058594 16.429688 13.042969 C 16.445312 13.027344 17.238281 12.757812 18.191406 12.445312 C 19.640625 11.972656 19.925781 11.84375 19.925781 11.664062 C 19.925781 11.546875 19.863281 11.453125 19.789062 11.457031 C 19.714844 11.460938 18.796875 11.761719 17.753906 12.128906 M 9.6875 12.839844 C 9.6875 12.917969 11.859375 17.015625 12.0625 17.320312 C 12.179688 17.496094 12.308594 17.3125 13.105469 15.832031 C 13.601562 14.90625 14.183594 13.835938 14.390625 13.457031 L 14.769531 12.769531 L 12.230469 12.769531 C 10.832031 12.769531 9.6875 12.800781 9.6875 12.839844 M 10.347656 13.265625 C 10.347656 13.441406 12.148438 16.613281 12.222656 16.566406 C 12.273438 16.535156 12.621094 15.929688 12.996094 15.21875 C 13.371094 14.507812 13.777344 13.765625 13.894531 13.570312 L 14.109375 13.210938 L 12.230469 13.210938 C 11.195312 13.210938 10.347656 13.234375 10.347656 13.265625 M 4.292969 15.304688 C 4.292969 15.515625 4.367188 15.523438 6.273438 15.523438 C 8.183594 15.523438 8.257812 15.515625 8.257812 15.304688 C 8.257812 15.089844 8.183594 15.082031 6.273438 15.082031 C 4.367188 15.082031 4.292969 15.089844 4.292969 15.304688 M 15.851562 15.304688 C 15.851562 15.515625 15.925781 15.523438 17.890625 15.523438 C 19.851562 15.523438 19.925781 15.515625 19.925781 15.304688 C 19.925781 15.089844 19.851562 15.082031 17.890625 15.082031 C 15.925781 15.082031 15.851562 15.089844 15.851562 15.304688 M 4.292969 16.625 C 4.292969 16.835938 4.367188 16.84375 6.273438 16.84375 C 8.183594 16.84375 8.257812 16.835938 8.257812 16.625 C 8.257812 16.410156 8.183594 16.402344 6.273438 16.402344 C 4.367188 16.402344 4.292969 16.410156 4.292969 16.625 M 15.851562 16.625 C 15.851562 16.835938 15.925781 16.84375 17.890625 16.84375 C 19.851562 16.84375 19.925781 16.835938 19.925781 16.625 C 19.925781 16.410156 19.851562 16.402344 17.890625 16.402344 C 15.925781 16.402344 15.851562 16.410156 15.851562 16.625 "/>
</g>
</svg>
