<?xml version="1.0" encoding="UTF-8"?>
<svg xmlns="http://www.w3.org/2000/svg" xmlns:xlink="http://www.w3.org/1999/xlink" width="24px" height="24px" viewBox="0 0 24 24" version="1.1">
<g id="surface1">
<path style=" stroke:none;fill-rule:nonzero;fill:rgb(43.921569%,43.921569%,43.921569%);fill-opacity:1;" d="M 17.773438 11.761719 C 16.839844 11.59375 17.296875 11.121094 17.296875 11.121094 C 17.296875 11.121094 18.207031 9.707031 17.113281 8.679688 C 15.757812 7.40625 12.460938 8.839844 12.460938 8.839844 C 11.203125 9.207031 11.539062 8.671875 11.714844 7.765625 C 11.714844 6.695312 11.324219 4.882812 7.972656 5.953125 C 4.621094 7.027344 1.746094 10.796875 1.746094 10.796875 C -0.253906 13.304688 0.0117188 15.238281 0.0117188 15.238281 C 0.511719 19.515625 5.347656 20.6875 9.113281 20.964844 C 13.070312 21.257812 18.414062 19.683594 20.035156 16.453125 C 21.65625 13.21875 18.710938 11.9375 17.773438 11.761719 Z M 16.523438 14.820312 C 16.523438 17.28125 13.339844 19.59375 9.40625 19.761719 C 5.476562 19.933594 2.296875 18.082031 2.296875 15.621094 C 2.296875 13.15625 5.476562 11.179688 9.40625 11.007812 C 13.339844 10.839844 16.523438 12.359375 16.523438 14.820312 Z M 8.621094 12.632812 C 4.667969 13.066406 5.125 16.542969 5.125 16.542969 C 5.125 16.542969 5.085938 17.644531 6.183594 18.203125 C 8.496094 19.378906 10.878906 18.667969 12.082031 17.210938 C 13.285156 15.75 12.582031 12.203125 8.621094 12.632812 Z M 8.957031 16.320312 C 8.957031 16.898438 8.359375 17.433594 7.625 17.511719 C 6.886719 17.59375 6.292969 17.191406 6.292969 16.613281 C 6.292969 16.035156 6.820312 15.433594 7.558594 15.359375 C 8.40625 15.285156 8.957031 15.742188 8.957031 16.320312 Z M 10.160156 14.941406 C 10.292969 15.152344 10.199219 15.46875 9.953125 15.648438 C 9.703125 15.824219 9.398438 15.800781 9.265625 15.589844 C 9.128906 15.382812 9.179688 15.054688 9.429688 14.882812 C 9.722656 14.675781 10.027344 14.738281 10.160156 14.941406 Z M 15.992188 3.175781 C 16.394531 3.101562 17.832031 2.839844 19.230469 3.144531 C 21.726562 3.691406 25.160156 5.960938 23.613281 10.785156 C 23.503906 11.476562 23.136719 11.53125 22.703125 11.53125 C 22.183594 11.53125 21.765625 11.226562 21.765625 10.738281 C 21.765625 10.3125 21.953125 9.882812 21.953125 9.882812 C 22.007812 9.707031 22.445312 8.601562 21.660156 6.949219 C 20.222656 4.683594 17.332031 4.648438 16.988281 4.777344 C 16.761719 4.863281 16.457031 4.917969 16.28125 4.949219 L 16.15625 4.964844 L 16.136719 4.96875 C 15.613281 4.96875 15.195312 4.570312 15.195312 4.085938 C 15.195312 3.675781 15.484375 3.332031 15.882812 3.226562 C 15.882812 3.226562 15.890625 3.214844 15.902344 3.210938 C 15.933594 3.203125 15.960938 3.179688 15.992188 3.175781 Z M 16.785156 6.308594 C 16.785156 6.308594 20.824219 5.609375 20.34375 9.683594 C 20.34375 9.707031 20.339844 9.726562 20.335938 9.746094 C 20.289062 10.035156 20.019531 10.257812 19.699219 10.257812 C 19.339844 10.257812 19.046875 9.988281 19.046875 9.648438 C 19.046875 9.648438 19.6875 6.925781 16.785156 7.527344 C 16.425781 7.527344 16.140625 7.253906 16.140625 6.921875 C 16.140625 6.582031 16.425781 6.308594 16.785156 6.308594 Z M 16.785156 6.308594 "/>
</g>
</svg>
